<svg width="33" height="40" viewBox="0 0 33 40" fill="none" xmlns="http://www.w3.org/2000/svg">
<path d="M10.7985 21.7042H21.7721M10.7985 29.02H16.2853M1.65381 5.24381V34.5068C1.65381 35.4769 2.03919 36.4073 2.72517 37.0933C3.41116 37.7793 4.34155 38.1647 5.31168 38.1647H27.2589C28.2291 38.1647 29.1594 37.7793 29.8454 37.0933C30.5314 36.4073 30.9168 35.4769 30.9168 34.5068V13.1851C30.9167 12.6978 30.8193 12.2154 30.6302 11.7662C30.4412 11.3171 30.1643 10.9103 29.8158 10.5697L21.6953 2.62843C21.0119 1.96024 20.0942 1.58606 19.1384 1.58594H5.31168C4.34155 1.58594 3.41116 1.97132 2.72517 2.6573C2.03919 3.34329 1.65381 4.27368 1.65381 5.24381V5.24381Z" stroke="#ECF0FF" stroke-width="2.74341" stroke-linecap="round" stroke-linejoin="round"/>
<path d="M19.9434 1.58594V8.90169C19.9434 9.87181 20.3287 10.8022 21.0147 11.4882C21.7007 12.1742 22.6311 12.5596 23.6012 12.5596H30.917" stroke="#ECF0FF" stroke-width="2.74341" stroke-linejoin="round"/>
</svg>
